<svg version="1.1" id="Layer_1" xmlns:x="ns_extend;" xmlns:i="ns_ai;" xmlns:graph="ns_graphs;" xmlns="http://www.w3.org/2000/svg" xmlns:xlink="http://www.w3.org/1999/xlink" x="0px" y="0px" viewBox="0 0 667.4 65" style="enable-background:new 0 0 667.4 65;" xml:space="preserve">
 <style type="text/css">
  .st0{fill:#1595D3;}
 </style>
 <metadata>
  <sfw xmlns="ns_sfw;">
   <slices>
   </slices>
   <sliceSourceBounds bottomLeftOrigin="true" height="65" width="667.4" x="-377.3" y="-173.8">
   </sliceSourceBounds>
  </sfw>
 </metadata>
 <g>
  <path class="st0" d="M667.4,51.8c0,6.8-6,9.9-12,9.9c-3.7,0-6.7-0.5-9.4-1.6l-0.4-0.2l0.5-5.2l0.7,0.4c1.8,0.9,4.7,2,8.3,2
		c3.2,0,6.7-1.7,6.7-5.3c0-3.3-3.4-4.9-7-6.6c-4.1-1.9-8.8-4.1-8.8-9.5c0-7,5.8-9.5,11.2-9.5c1.5,0,5.1,0.3,8.3,1.5l0.4,0.2
		l-0.5,4.7l-0.7-0.3c-2-0.9-4.8-1.5-7-1.5c-4.5,0-6.5,1.5-6.5,4.9c0,2.3,2.8,3.5,6.1,5C661.8,42.8,667.4,45.3,667.4,51.8
		 M640.7,39.4v21.5h-5.2V40.5c0-6.5-2.4-9.6-7.2-9.6c-6.7,0-9.1,5.9-9.1,11.4v18.7H614V35.3c0-2.5,0-5-0.3-7.7l-0.1-0.6h5.1v4.4
		c1.6-2.6,4.4-5.2,10.2-5.2C636.6,26.3,640.7,30.9,640.7,39.4 M600.8,44.4h0.6v1.4c0,3.1,0,11.3-9.1,11.3c-2.3,0-6.2-0.7-6.2-5.4
		C586,45.3,593.4,44.4,600.8,44.4 M606.5,53.5V39c0-8.8-3.7-12.8-12.1-12.8c-2.9,0-7.2,1-9.9,2.3l-0.3,0.2V34l0.9-0.5
		c2.8-1.8,5.8-2.6,9.3-2.6c4.9,0,6.9,2.3,6.9,7.9v1.1h-0.2c-7.2,0-20.7,0-20.7,12.1c0,1.6,0.5,9.8,11.4,9.8c3.3,0,7.6-1.5,10-4.8v4
		h5.2l-0.1-0.6C606.5,58.1,606.5,56.2,606.5,53.5 M558.3,35.5h16v23.2l-0.3,0.1c-4.4,1.9-8.9,2.8-14.2,2.8
		c-14.1,0-23.2-9.3-23.2-23.8c0-14.2,9.3-23.7,23.2-23.7c3.9,0,9.3,0.7,12.3,2.2l0.4,0.2l-0.7,5.3l-0.7-0.4
		c-2.8-1.6-6.4-2.3-11.2-2.3c-10.7,0-17.6,7.4-17.6,18.8c0,11.6,6.8,18.8,17.6,18.8c2.9,0,7-0.4,8.9-1.4V40.5h-10.4V35.5z M518,51.8
		c0,6.8-6,9.9-12,9.9c-3.7,0-6.7-0.5-9.4-1.6l-0.4-0.2l0.5-5.2l0.7,0.4c1.8,0.9,4.7,2,8.3,2c3.2,0,6.7-1.7,6.7-5.3
		c0-3.3-3.4-4.9-7-6.6c-4.1-1.9-8.8-4.1-8.8-9.5c0-7,5.8-9.5,11.2-9.5c1.5,0,5.1,0.3,8.3,1.5l0.4,0.2l-0.5,4.7l-0.7-0.3
		c-2-0.9-4.8-1.5-7-1.5c-4.5,0-6.5,1.5-6.5,4.9c0,2.3,2.8,3.5,6.1,5C512.4,42.8,518,45.3,518,51.8 M470.6,41.1
		c0.2-5,3.7-10.3,9.1-10.3c5.5,0,7.6,5.2,7.8,10.3H470.6z M479.5,26.3c-8.5,0-14.4,7.3-14.4,17.7c0,11.6,5.3,17.7,15.5,17.7
		c3.2,0,6.9-0.7,9.7-1.8l0.3-0.1v-5.5l-0.9,0.5c-1.8,1.1-5.9,2.4-8.9,2.4c-6.1,0-10-4.5-10.2-11.4h22.4v-2.6
		C493.1,32.6,488,26.3,479.5,26.3 M444.9,57.1c-8,0-9.1-8.2-9.1-13.1c0-4.9,1.2-13.1,9.1-13.1c7.2,0,9.1,8.3,9.1,13.1
		C454.1,48.9,452.1,57.1,444.9,57.1 M454.1,31.2c-1.5-2.1-4.6-4.9-9.8-4.9c-9.1,0-14.1,6.3-14.1,17.7c0,10.9,5.4,17.7,14.1,17.7
		c4.4,0,7.6-1.6,9.8-4.7v4h5.2V11.6h-5.2V31.2z M424,39.4v21.5h-5.2V40.5c0-6.5-2.4-9.6-7.2-9.6c-6.7,0-9.1,5.9-9.1,11.4v18.7h-5.2
		V35.3c0-2.5,0-5-0.3-7.7L397,27h5.1v4.4c1.6-2.6,4.4-5.2,10.2-5.2C419.8,26.3,424,30.9,424,39.4 M369.2,41.1
		c0.2-5,3.7-10.3,9.1-10.3c5.5,0,7.6,5.2,7.8,10.3H369.2z M378,26.3c-8.5,0-14.4,7.3-14.4,17.7c0,11.6,5.3,17.7,15.5,17.7
		c3.2,0,6.9-0.7,9.7-1.8l0.3-0.1v-5.5l-0.9,0.5c-1.8,1.1-5.9,2.4-8.9,2.4c-6.1,0-10-4.5-10.2-11.4h22.4v-2.6
		C391.6,32.6,386.5,26.3,378,26.3 M349.2,15h7.3v46h-5.6V22.5l-15.5,38.4h-4.5l-16-38.5v38.5h-5.6V15h7.8l0.1,0.3l15.9,38.2
		L349.2,15z M272.9,42.1l18.5,18.8h-7.2l-15.4-16v16h-5.2V11.6h5.2v28.1L282.7,27h6.9L272.9,42.1z M255.8,39.4v21.5h-5.2V40.5
		c0-6.5-2.4-9.6-7.2-9.6c-6.7,0-9.1,5.9-9.1,11.4v18.7h-5.2V35.3c0-2.5,0-5-0.3-7.7l-0.1-0.6h5.1v4.4c1.6-2.6,4.4-5.2,10.2-5.2
		C251.7,26.3,255.8,30.9,255.8,39.4 M215.8,44.4h0.6v1.4c0,3.1,0,11.3-9.1,11.3c-2.3,0-6.2-0.7-6.2-5.4
		C201.1,45.3,208.5,44.4,215.8,44.4 M221.6,53.5V39c0-8.8-3.7-12.8-12.1-12.8c-2.9,0-7.2,1-9.9,2.3l-0.3,0.2V34l0.9-0.5
		c2.8-1.8,5.8-2.6,9.3-2.6c4.9,0,6.9,2.3,6.9,7.9v1.1h-0.2c-7.2,0-20.7,0-20.7,12.1c0,1.6,0.5,9.8,11.4,9.8c3.3,0,7.6-1.5,10-4.8v4
		h5.2l-0.1-0.6C221.6,58.1,221.6,56.2,221.6,53.5 M168.7,39.5h3.4c7.7,0,12.9,1.4,12.9,8.2c0,6.8-6.6,8.2-12.2,8.2h-4.1V39.5z
		 M174.4,19.9c6.1,0,9.2,2.3,9.2,6.8c0,5.2-3.5,7.8-10.4,7.8h-4.4V19.9H174.4z M182.4,36.8c4.5-1.5,6.7-5,6.7-10.3
		c0-7.6-5.1-11.6-14.8-11.6h-11.2v46h9.5c11.7,0,17.8-4.6,17.8-13.3C190.5,42.3,187.5,38.4,182.4,36.8 M134,52.3
		c0,4.7-3.9,8.6-8.7,8.6l-40.4,0c-0.1,0-0.1,0-0.2,0c-4.8,0-8.8-3.8-8.8-8.6V12.9c0-0.1,0-0.1,0-0.2c0-4.7,3.9-8.5,8.8-8.5l40.3,0
		c0.1,0,0.1,0,0.2,0c4.8,0,8.7,3.8,8.7,8.5c0,4.7-3.9,8.6-8.7,8.6l-20.2,0c-0.1,0-0.1,0-0.1,0c-7.1,0-12.8,5.7-12.8,12.6
		c0,7,5.8,12.6,12.8,12.6c7.1,0,12.8-5.7,12.8-12.6c0-1.1-0.9-2-2-2c-1.1,0-2,0.9-2,2c0,4.7-3.9,8.5-8.7,8.5c-4.8,0-8.8-3.8-8.8-8.5
		c0-4.6,3.9-8.5,8.6-8.5c0.1,0,0.1,0,0.1,0l20.4,0c3.3,0,6.4-1.3,8.7-3.4l0,30.3C134,52.2,134,52.3,134,52.3 M138.1,12.6L138.1,12.6
		c0-6.9-5.6-12.5-12.6-12.6c-0.1,0-0.2,0-0.2,0L84.7,0c-7,0-12.7,5.5-12.8,12.4c0,0.1,0,0.2,0,0.2l0,39.7c0,6.9,5.7,12.6,12.7,12.6
		c0.1,0,0.1,0,0.2,0h40.6c7,0,12.7-5.6,12.8-12.5c0-0.1,0-0.1,0-0.2L138.1,12.6L138.1,12.6z M62.1,52.3c0,4.7-3.9,8.6-8.7,8.6h-0.5
		c-4.6-0.2-8.3-4-8.3-8.5l0-21.7c0-0.1,0-0.3,0-0.4c0-4.7,3.9-8.5,8.7-8.5c1.1,0,2-0.9,2-2c0-1.1-0.9-2.1-2-2.1
		c-6.9,0-12.6,5.4-12.8,12.1c0,0.1-0.1,0.3-0.1,0.5l0,22.1c0,3.3,1.3,6.3,3.4,8.5l-21.6,0c2.1-2.2,3.4-5.2,3.4-8.4
		c0-0.1,0-0.1,0-0.2l0-22c0-7-5.8-12.6-12.8-12.6c-1.1,0-2,0.9-2,2.1c0,1.1,0.9,2,2,2c4.8,0,8.8,3.8,8.8,8.5l0,21.9
		c0,0.1,0,0.1,0,0.2c0,4.7-3.9,8.6-8.8,8.6c-4.8,0-8.7-3.8-8.7-8.5l0-39.7c0,0,0-0.1,0-0.1c0.1-4.6,4-8.4,8.7-8.4l40.5,0
		c4.8,0,8.8,3.8,8.8,8.5l0,39.3C62.1,52.1,62.1,52.2,62.1,52.3 M53.4,0L53.4,0L53.4,0L53.4,0L53.4,0L12.8,0C5.8,0,0,5.7,0,12.6
		c0,0,0,0.1,0,0.1l0,39.6C0,59.3,5.7,64.9,12.7,65c0.1,0,0.1,0,0.2,0h40c0.2,0,0.3,0,0.5,0c0.1,0,0.2,0,0.2,0
		c6.8-0.1,12.4-5.5,12.6-12.2c0-0.1,0-0.3,0-0.4V12.6C66.2,5.7,60.5,0,53.4,0">
  </path>
 </g>
</svg>