<svg width="698" height="100" viewBox="0 0 698 100" fill="none" xmlns="http://www.w3.org/2000/svg">
<path d="M50 15.2V26.5H20.9V44.4H43.2V55.5H20.9V85H6.9V15.2H50ZM72.9273 11V85H58.9273V11H72.9273ZM92.8594 23C90.3927 23 88.326 22.2333 86.6594 20.7C85.0594 19.1 84.2594 17.1333 84.2594 14.8C84.2594 12.4667 85.0594 10.5333 86.6594 8.99999C88.326 7.4 90.3927 6.6 92.8594 6.6C95.326 6.6 97.3594 7.4 98.9594 8.99999C100.626 10.5333 101.459 12.4667 101.459 14.8C101.459 17.1333 100.626 19.1 98.9594 20.7C97.3594 22.2333 95.326 23 92.8594 23ZM99.7594 29.6V85H85.7594V29.6H99.7594ZM143.291 28.8C149.891 28.8 155.225 30.9 159.291 35.1C163.358 39.2333 165.391 45.0333 165.391 52.5V85H151.391V54.4C151.391 50 150.291 46.6333 148.091 44.3C145.891 41.9 142.891 40.7 139.091 40.7C135.225 40.7 132.158 41.9 129.891 44.3C127.691 46.6333 126.591 50 126.591 54.4V85H112.591V29.6H126.591V36.5C128.458 34.1 130.825 32.2333 133.691 30.9C136.625 29.5 139.825 28.8 143.291 28.8ZM210.505 85L191.705 61.4V85H177.705V11H191.705V53.1L210.305 29.6H228.505L204.105 57.4L228.705 85H210.505ZM283.031 85.7C278.165 85.7 273.765 84.8667 269.831 83.2C265.965 81.5333 262.898 79.1333 260.631 76C258.365 72.8667 257.198 69.1667 257.131 64.9H272.131C272.331 67.7667 273.331 70.0333 275.131 71.7C276.998 73.3667 279.531 74.2 282.731 74.2C285.998 74.2 288.565 73.4333 290.431 71.9C292.298 70.3 293.231 68.2333 293.231 65.7C293.231 63.6333 292.598 61.9333 291.331 60.6C290.065 59.2667 288.465 58.2333 286.531 57.5C284.665 56.7 282.065 55.8333 278.731 54.9C274.198 53.5667 270.498 52.2667 267.631 51C264.831 49.6667 262.398 47.7 260.331 45.1C258.331 42.4333 257.331 38.9 257.331 34.5C257.331 30.3667 258.365 26.7667 260.431 23.7C262.498 20.6333 265.398 18.3 269.131 16.7C272.865 15.0333 277.131 14.2 281.931 14.2C289.131 14.2 294.965 15.9667 299.431 19.5C303.965 22.9667 306.465 27.8333 306.931 34.1H291.531C291.398 31.7 290.365 29.7333 288.431 28.2C286.565 26.6 284.065 25.8 280.931 25.8C278.198 25.8 275.998 26.5 274.331 27.9C272.731 29.3 271.931 31.3333 271.931 34C271.931 35.8667 272.531 37.4333 273.731 38.7C274.998 39.9 276.531 40.9 278.331 41.7C280.198 42.4333 282.798 43.3 286.131 44.3C290.665 45.6333 294.365 46.9667 297.231 48.3C300.098 49.6333 302.565 51.6333 304.631 54.3C306.698 56.9667 307.731 60.4667 307.731 64.8C307.731 68.5333 306.765 72 304.831 75.2C302.898 78.4 300.065 80.9667 296.331 82.9C292.598 84.7667 288.165 85.7 283.031 85.7ZM343.469 85.9C338.135 85.9 333.335 84.7333 329.069 82.4C324.802 80 321.435 76.6333 318.969 72.3C316.569 67.9667 315.369 62.9667 315.369 57.3C315.369 51.6333 316.602 46.6333 319.069 42.3C321.602 37.9667 325.035 34.6333 329.369 32.3C333.702 29.9 338.535 28.7 343.869 28.7C349.202 28.7 354.035 29.9 358.369 32.3C362.702 34.6333 366.102 37.9667 368.569 42.3C371.102 46.6333 372.369 51.6333 372.369 57.3C372.369 62.9667 371.069 67.9667 368.469 72.3C365.935 76.6333 362.469 80 358.069 82.4C353.735 84.7333 348.869 85.9 343.469 85.9ZM343.469 73.7C346.002 73.7 348.369 73.1 350.569 71.9C352.835 70.6333 354.635 68.7667 355.969 66.3C357.302 63.8333 357.969 60.8333 357.969 57.3C357.969 52.0333 356.569 48 353.769 45.2C351.035 42.3333 347.669 40.9 343.669 40.9C339.669 40.9 336.302 42.3333 333.569 45.2C330.902 48 329.569 52.0333 329.569 57.3C329.569 62.5667 330.869 66.6333 333.469 69.5C336.135 72.3 339.469 73.7 343.469 73.7ZM407.038 41.1H397.338V85H383.138V41.1H376.838V29.6H383.138V26.8C383.138 20 385.072 15 388.938 11.8C392.805 8.6 398.638 7.1 406.438 7.3V19.1C403.038 19.0333 400.672 19.6 399.338 20.8C398.005 22 397.338 24.1667 397.338 27.3V29.6H407.038V41.1ZM431.411 41.1V67.9C431.411 69.7667 431.844 71.1333 432.711 72C433.644 72.8 435.178 73.2 437.311 73.2H443.811V85H435.011C423.211 85 417.311 79.2667 417.311 67.8V41.1H410.711V29.6H417.311V15.9H431.411V29.6H443.811V41.1H431.411ZM529.68 29.6L513.48 85H498.38L488.28 46.3L478.18 85H462.98L446.68 29.6H460.88L470.68 71.8L481.28 29.6H496.08L506.48 71.7L516.28 29.6H529.68ZM532.655 57.1C532.655 51.5 533.755 46.5333 535.955 42.2C538.222 37.8667 541.255 34.5333 545.055 32.2C548.922 29.8667 553.222 28.7 557.955 28.7C562.089 28.7 565.689 29.5333 568.755 31.2C571.889 32.8667 574.389 34.9667 576.255 37.5V29.6H590.355V85H576.255V76.9C574.455 79.5 571.955 81.6667 568.755 83.4C565.622 85.0667 561.989 85.9 557.855 85.9C553.189 85.9 548.922 84.7 545.055 82.3C541.255 79.9 538.222 76.5333 535.955 72.2C533.755 67.8 532.655 62.7667 532.655 57.1ZM576.255 57.3C576.255 53.9 575.589 51 574.255 48.6C572.922 46.1333 571.122 44.2667 568.855 43C566.589 41.6667 564.155 41 561.555 41C558.955 41 556.555 41.6333 554.355 42.9C552.155 44.1667 550.355 46.0333 548.955 48.5C547.622 50.9 546.955 53.7667 546.955 57.1C546.955 60.4333 547.622 63.3667 548.955 65.9C550.355 68.3667 552.155 70.2667 554.355 71.6C556.622 72.9333 559.022 73.6 561.555 73.6C564.155 73.6 566.589 72.9667 568.855 71.7C571.122 70.3667 572.922 68.5 574.255 66.1C575.589 63.6333 576.255 60.7 576.255 57.3ZM617.029 38.2C618.829 35.2667 621.162 32.9667 624.029 31.3C626.962 29.6333 630.296 28.8 634.029 28.8V43.5H630.329C625.929 43.5 622.596 44.5333 620.329 46.6C618.129 48.6667 617.029 52.2667 617.029 57.4V85H603.029V29.6H617.029V38.2ZM693.959 56.1C693.959 58.1 693.825 59.9 693.559 61.5H653.059C653.392 65.5 654.792 68.6333 657.259 70.9C659.725 73.1667 662.759 74.3 666.359 74.3C671.559 74.3 675.259 72.0667 677.459 67.6H692.559C690.959 72.9333 687.892 77.3333 683.359 80.8C678.825 84.2 673.259 85.9 666.659 85.9C661.325 85.9 656.525 84.7333 652.259 82.4C648.059 80 644.759 76.6333 642.359 72.3C640.025 67.9667 638.859 62.9667 638.859 57.3C638.859 51.5667 640.025 46.5333 642.359 42.2C644.692 37.8667 647.959 34.5333 652.159 32.2C656.359 29.8667 661.192 28.7 666.659 28.7C671.925 28.7 676.625 29.8333 680.759 32.1C684.959 34.3667 688.192 37.6 690.459 41.8C692.792 45.9333 693.959 50.7 693.959 56.1ZM679.459 52.1C679.392 48.5 678.092 45.6333 675.559 43.5C673.025 41.3 669.925 40.2 666.259 40.2C662.792 40.2 659.859 41.2667 657.459 43.4C655.125 45.4667 653.692 48.3667 653.159 52.1H679.459Z" fill="#0066BB"/>
</svg>
