<svg xmlns="http://www.w3.org/2000/svg" width="154" height="56" viewBox="0 0 154 56" fill="none">
    <g clip-path="url(#clip0_357_618)">
        <path d="M24.7175 4.54333C24.7175 2.20016 22.8338 0.5 20.3988 0.5C17.6881 0.5 16.5855 2.47572 15.9423 4.45144L12.3128 13.5491L8.82112 4.45144C8.17791 2.61369 7.16716 0.5 4.31867 0.5C1.83773 0.5 0 2.20016 0 4.54333C0 5.37037 0.183645 6.05971 1.0567 7.7138L7.9482 20.9465V28.6196C7.9482 31.5142 9.55621 33.2142 12.3128 33.2142C15.0694 33.2142 16.6774 31.5142 16.6774 28.6196V20.7166L23.6149 7.7138C24.3959 6.19755 24.7175 5.41645 24.7175 4.54333Z"
              fill="#422D67"></path>
        <path d="M39.8328 10.011C37.8113 10.011 36.3869 11.1137 35.8816 12.9516C34.5492 10.792 32.7114 9.73532 30.1386 9.73532C24.4418 9.73532 20.5825 14.5139 20.5825 21.7734C20.5825 28.8033 24.2579 33.3981 29.6792 33.3981C32.2521 33.3981 34.1357 32.3412 35.7896 29.9979C36.2033 32.0197 37.6734 33.2142 39.8787 33.2142C42.4055 33.2142 44.0135 31.4682 44.0135 28.6196V14.5139C44.0135 11.7571 42.4055 10.011 39.8328 10.011ZM32.5278 26.6897C30.3225 26.6897 28.99 24.8059 28.99 21.5437C28.99 18.3275 30.3225 16.3976 32.5278 16.3976C34.779 16.3976 36.1112 18.3275 36.1112 21.5437C36.1112 24.8059 34.779 26.6897 32.5278 26.6897Z"
              fill="#422D67"></path>
        <path d="M53.202 16.8111C53.202 16.2138 53.6615 15.8004 54.3967 15.8004C55.5451 15.8004 56.5099 16.8111 57.9801 16.8111C59.7719 16.8111 60.8746 15.4787 60.8746 13.8705C60.8746 11.1137 57.6587 9.73532 53.9371 9.73532C48.6996 9.73532 45.3917 12.3543 45.3917 16.5355C45.3917 23.2437 54.1208 23.5194 54.1208 26.0465C54.1208 26.6897 53.6155 27.1493 52.7426 27.1493C50.9967 27.1493 49.8482 25.4033 47.8725 25.4033C46.0807 25.4033 44.8403 26.8277 44.8403 28.4818C44.8403 31.2385 48.4239 33.3981 53.0182 33.3981C58.3937 33.3981 61.9772 30.4575 61.9772 26.0005C61.9772 19.1086 53.202 19.1086 53.202 16.8111Z"
              fill="#422D67"></path>
        <path d="M73.9228 9.73532C66.9394 9.73532 62.3911 14.1922 62.3911 21.2681C62.3911 28.6196 67.353 33.3981 75.2552 33.3981C80.1252 33.3981 83.2952 31.5602 83.2494 28.5736C83.2494 26.6897 82.1008 25.5411 80.2631 25.5411C78.6091 25.5411 77.6444 26.5978 75.3012 26.5978C73.2337 26.5978 71.0744 25.9546 70.615 23.9329H82.6062C84.4899 23.9329 85.3628 22.8302 85.3628 20.3031C85.3628 14.1922 80.6306 9.73532 73.9228 9.73532ZM70.1555 19.1544C70.0636 16.7193 71.5797 15.203 74.1065 15.203C76.4957 15.203 78.012 16.7193 78.012 19.1544H70.1555Z"
              fill="#422D67"></path>
        <path d="M112.009 9.73547C109.344 9.73547 107.231 10.8382 106.036 13.2274C104.612 10.8841 102.407 9.73547 99.5584 9.73547C97.2613 9.73547 95.6532 10.5625 94.229 12.5842C93.6777 10.9762 92.2994 10.0112 90.4157 10.0112C87.8429 10.0112 86.2349 11.849 86.2349 14.514V28.6197C86.2349 31.4224 87.8429 33.2142 90.4616 33.2142C92.9885 33.2142 94.5506 31.4684 94.5506 28.6197V19.5681C94.5506 17.8221 95.4235 16.7654 96.8478 16.7654C98.2261 16.7654 99.099 17.8221 99.099 19.5222V28.6197C99.099 31.4684 100.707 33.2142 103.28 33.2142C105.807 33.2142 107.415 31.4684 107.415 28.6197V19.5681C107.415 17.8221 108.288 16.7654 109.712 16.7654C111.09 16.7654 111.963 17.8221 111.963 19.5222V28.6197C111.963 31.4684 113.525 33.2142 116.098 33.2142C118.717 33.2142 120.279 31.4224 120.279 28.6197V18.6032C120.279 13.1355 117.063 9.73547 112.009 9.73547Z"
              fill="#422D67"></path>
        <path d="M126.021 10.011C123.402 10.011 121.84 11.7571 121.84 14.5139V28.6196C121.84 31.4684 123.448 33.2142 126.067 33.2142C128.594 33.2142 130.155 31.4684 130.155 28.6196V14.5139C130.155 11.7571 128.594 10.011 126.021 10.011Z"
              fill="#422D67"></path>
        <path d="M145.73 9.73547C143.02 9.73547 141.182 10.8382 139.942 12.8139C139.436 11.0679 138.012 10.0112 136.036 10.0112C133.418 10.0112 131.855 11.849 131.855 14.514V28.6197C131.855 31.4224 133.464 33.2142 136.082 33.2142C138.609 33.2142 140.171 31.4684 140.171 28.6197V19.9357C140.171 18.0059 141.228 16.7654 142.974 16.7654C144.628 16.7654 145.685 17.9601 145.685 19.8897V28.6197C145.685 31.4684 147.292 33.2142 149.865 33.2142C152.438 33.2142 154 31.4224 154 28.6197V18.6032C154 13.2274 150.692 9.73547 145.73 9.73547Z"
              fill="#422D67"></path>
        <path d="M126.632 1.88546C126.282 2.23571 125.714 2.23571 125.364 1.88546C124.43 0.951509 122.916 0.951509 121.982 1.88546C121.048 2.81942 121.048 4.33348 121.982 5.26744L124.573 7.85882C125.36 8.64569 126.636 8.64569 127.422 7.85882L130.014 5.26744C130.947 4.33348 130.947 2.81942 130.014 1.88546C129.08 0.951509 127.566 0.951509 126.632 1.88546Z"
              fill="#422D67"></path>
        <path d="M46.3228 44.0935L44.8726 47.1443L43.7324 46.6022L45.1779 43.5619C45.4019 43.0905 45.4776 42.6863 45.4048 42.3498C45.3319 42.013 45.1088 41.7561 44.7359 41.5786C44.3418 41.3913 43.9643 41.3824 43.6035 41.5515C43.2426 41.7208 42.9467 42.0482 42.7159 42.5338L41.3257 45.458L40.1752 44.9109L41.6205 41.8706C41.848 41.392 41.9227 40.9854 41.8447 40.6505C41.7665 40.3158 41.5409 40.0596 41.168 39.8823C40.7809 39.6982 40.4045 39.6962 40.0386 39.8761C39.6727 40.0558 39.3744 40.3886 39.1435 40.8741L37.7684 43.7667L36.6284 43.2246L39.1979 37.8197L40.1901 38.2913L39.9806 39.059C40.6084 38.7362 41.2584 38.7303 41.9303 39.0411C42.3103 39.2217 42.6061 39.4617 42.8177 39.7607C43.0293 40.0598 43.1338 40.4114 43.1313 40.8158C43.4686 40.5965 43.8329 40.4742 44.2246 40.4489C44.6163 40.4239 45.0301 40.515 45.4665 40.7224C46.0576 41.0035 46.4485 41.4246 46.6392 41.9853C46.8298 42.5463 46.7243 43.249 46.3228 44.0935Z"
              fill="#422D67"></path>
        <path d="M52.0705 49.6593L51.0218 49.2941L51.1893 48.3866C50.8931 48.5972 50.5609 48.7331 50.1929 48.7948C49.8248 48.8564 49.4347 48.8154 49.0226 48.6719C48.5075 48.4923 48.0878 48.2161 47.7638 47.8433C47.4397 47.4703 47.2399 47.0254 47.1643 46.5077C47.0887 45.9904 47.1534 45.4372 47.3586 44.8485C47.5586 44.2744 47.8508 43.8087 48.2351 43.4515C48.6195 43.0943 49.0557 42.8668 49.5438 42.7685C50.0319 42.6703 50.5299 42.7097 51.0377 42.8867C51.4572 43.0328 51.794 43.2388 52.0479 43.5046C52.3019 43.7707 52.4759 44.0768 52.5699 44.4232L53.0018 43.645L54.0395 44.0066L52.0705 49.6593ZM51.8661 46.4434C52.0609 45.8843 52.069 45.3751 51.8903 44.9168C51.7116 44.4584 51.3757 44.1433 50.8827 43.9716C50.3895 43.7997 49.9312 43.836 49.5077 44.0806C49.0842 44.325 48.7762 44.7234 48.584 45.2754C48.3891 45.8347 48.3817 46.3418 48.5616 46.7965C48.7417 47.2512 49.0782 47.5645 49.5712 47.7364C50.0643 47.9082 50.522 47.8736 50.9443 47.6328C51.3665 47.392 51.6738 46.9956 51.8661 46.4434Z"
              fill="#422D67"></path>
        <path d="M59.4348 51.5936L58.3578 51.3228L58.4442 50.4043C58.1679 50.6403 57.8491 50.8051 57.488 50.8992C57.1268 50.9931 56.7346 50.9869 56.3114 50.8805C55.7824 50.7475 55.3399 50.5096 54.9842 50.167C54.6283 49.8243 54.3899 49.3987 54.2686 48.8899C54.1474 48.3814 54.1628 47.8246 54.3149 47.2199C54.4631 46.6305 54.7129 46.1407 55.064 45.7508C55.4152 45.361 55.8295 45.0955 56.3069 44.9546C56.7844 44.8134 57.2839 44.8084 57.8053 44.9394C58.2363 45.0479 58.5898 45.2233 58.8664 45.4656C59.1429 45.7079 59.3434 45.9973 59.4678 46.3341L59.8289 45.5208L60.8946 45.7888L59.4348 51.5936ZM58.946 48.4089C59.0905 47.8344 59.0534 47.3268 58.8347 46.8861C58.616 46.4454 58.2536 46.1614 57.7472 46.0338C57.2408 45.9065 56.7875 45.9835 56.3874 46.2646C55.9872 46.5456 55.7158 46.9697 55.5732 47.5364C55.4289 48.1109 55.4663 48.6167 55.686 49.0536C55.9056 49.4905 56.2685 49.7728 56.7749 49.9001C57.2813 50.0274 57.7341 49.9525 58.1334 49.6753C58.5326 49.3978 58.8034 48.9757 58.946 48.4089Z"
              fill="#422D67"></path>
        <path d="M62.5828 43.8399L61.0713 51.8824L62.312 52.1156L63.8235 44.0732L62.5828 43.8399Z"
              fill="#422D67"></path>
        <path d="M66.2093 44.9918L65.9643 46.6456L67.3981 46.858L67.2354 47.9566L65.8014 47.7442L65.344 50.832C65.3098 51.0633 65.3317 51.234 65.41 51.344C65.4881 51.4541 65.6391 51.5257 65.8626 51.5588L66.8109 51.6994L66.6482 52.798L65.4454 52.6199C64.8827 52.5364 64.4936 52.3448 64.278 52.045C64.0624 51.7451 63.9951 51.3215 64.0762 50.7742L64.9603 44.8067L66.2093 44.9918Z"
              fill="#422D67"></path>
        <path d="M69.546 47.0921L68.8971 53.0424L67.6421 52.9053L68.2911 46.9552L69.546 47.0921ZM69.8629 45.4804C69.8393 45.6973 69.746 45.8694 69.5831 45.9966C69.4204 46.1239 69.2305 46.1757 69.0136 46.152C68.7967 46.1284 68.6224 46.0369 68.4909 45.8775C68.3593 45.7181 68.3053 45.5298 68.3291 45.3129C68.3527 45.096 68.4458 44.9239 68.6087 44.7966C68.7715 44.6694 68.9615 44.6176 69.1784 44.6413C69.3953 44.6647 69.5695 44.7565 69.7011 44.9158C69.8326 45.0753 69.8866 45.2633 69.8629 45.4804Z"
              fill="#422D67"></path>
        <path d="M70.2484 54.2434C70.3575 54.1462 70.4205 53.9848 70.4377 53.7594L70.9365 47.2201L72.1953 47.3161L71.6895 53.9488C71.6048 55.06 71.0184 55.5742 69.9305 55.4913L68.998 55.4202L69.0825 54.3127L69.7586 54.3643C69.9761 54.381 70.1394 54.3405 70.2484 54.2434ZM72.448 45.6939C72.4315 45.9115 72.3457 46.0868 72.1911 46.2196C72.0363 46.3525 71.8503 46.4106 71.6326 46.3939C71.4072 46.3766 71.2282 46.2907 71.0954 46.1361C70.9626 45.9813 70.9046 45.7951 70.9211 45.5775C70.9377 45.36 71.0253 45.1849 71.184 45.0523C71.3426 44.9199 71.5306 44.8619 71.7482 44.8786C71.9658 44.8951 72.1409 44.9807 72.2738 45.1356C72.4066 45.2902 72.4646 45.4764 72.448 45.6939Z"
              fill="#422D67"></path>
        <path d="M79.1792 53.5233L78.0805 53.505L77.9436 52.6024C77.4574 53.2412 76.8014 53.5538 75.9754 53.5401C75.43 53.531 74.9451 53.4002 74.5205 53.1476C74.0961 52.8949 73.767 52.5348 73.5331 52.0671C73.2993 51.5994 73.1875 51.0538 73.1979 50.4304C73.2081 49.8226 73.3396 49.289 73.5928 48.8294C73.846 48.3698 74.1889 48.017 74.6218 47.7708C75.0545 47.5246 75.5397 47.406 76.0773 47.415C76.5138 47.4222 76.8942 47.5086 77.2189 47.6738C77.5435 47.8389 77.8047 48.0634 78.0027 48.3473L78.053 45.3199L79.3155 45.3409L79.1792 53.5233ZM77.978 50.5335C77.988 49.9335 77.8363 49.4457 77.523 49.0701C77.2096 48.6946 76.792 48.5026 76.27 48.4939C75.7478 48.4852 75.3239 48.6633 74.9983 49.0282C74.6727 49.3929 74.505 49.8675 74.4952 50.452C74.4854 51.0443 74.6372 51.528 74.9504 51.9036C75.2637 52.2791 75.6814 52.4711 76.2035 52.48C76.7256 52.4886 77.1494 52.3125 77.475 51.9516C77.8006 51.5905 77.9682 51.1179 77.978 50.5335Z"
              fill="#422D67"></path>
        <path d="M82.2845 52.1635C82.5654 52.3447 82.9199 52.4217 83.3476 52.3946C83.7286 52.3702 84.0333 52.2785 84.2613 52.1196C84.4894 51.9606 84.5958 51.7605 84.5804 51.5193C84.5676 51.3172 84.5034 51.1689 84.388 51.0747C84.2728 50.9805 84.1224 50.9179 83.9368 50.8867C83.7514 50.8556 83.4666 50.8288 83.0825 50.8065C82.5573 50.7775 82.1224 50.7213 81.7773 50.6377C81.4322 50.5543 81.1494 50.4044 80.9287 50.1881C80.7079 49.9717 80.5852 49.669 80.5605 49.2802C80.5372 48.9146 80.6195 48.5833 80.8075 48.2863C80.9957 47.9891 81.2655 47.7515 81.6172 47.5728C81.9689 47.3941 82.3743 47.2904 82.8333 47.2611C83.5876 47.213 84.2108 47.3412 84.7027 47.6457C85.1945 47.9502 85.4792 48.4044 85.5568 49.0088L84.3317 49.0868C84.2833 48.8164 84.133 48.6017 83.8807 48.442C83.6284 48.2824 83.3195 48.2142 82.954 48.2373C82.5884 48.2607 82.2973 48.3495 82.0807 48.5039C81.8641 48.6582 81.7635 48.8561 81.7787 49.0972C81.7902 49.276 81.8551 49.4066 81.9736 49.4889C82.092 49.5712 82.2379 49.6244 82.4113 49.6484C82.5847 49.6725 82.8633 49.6958 83.2474 49.7181C83.7642 49.74 84.2012 49.796 84.5584 49.8865C84.9156 49.9771 85.207 50.1381 85.4325 50.3697C85.6581 50.6014 85.7844 50.9273 85.8111 51.3472C85.8348 51.7207 85.7469 52.0562 85.5472 52.3539C85.3476 52.6518 85.062 52.8886 84.6905 53.0644C84.3191 53.2405 83.8961 53.3437 83.4217 53.3737C82.6206 53.425 81.9616 53.2852 81.4447 52.955C80.9278 52.6247 80.6412 52.1413 80.585 51.5044L81.7984 51.4272C81.8415 51.7367 82.0036 51.9822 82.2845 52.1635Z"
              fill="#422D67"></path>
        <path d="M87.8197 47.2038C88.2195 46.8903 88.7008 46.6931 89.2638 46.6122C89.8347 46.53 90.3546 46.5732 90.8236 46.7418C91.2927 46.9107 91.6831 47.189 91.9948 47.5774C92.3065 47.9655 92.5072 48.4443 92.597 49.014C92.6192 49.1683 92.6304 49.3282 92.6307 49.4934L88.1649 50.1361L88.1748 50.2055C88.28 50.7178 88.5009 51.1033 88.8373 51.362C89.1736 51.6206 89.5848 51.715 90.0707 51.6451C90.4563 51.5896 90.7673 51.4523 91.0034 51.2332C91.2395 51.0143 91.3762 50.7328 91.4133 50.389L92.6628 50.2092C92.6413 50.8265 92.4212 51.362 92.0024 51.8159C91.5835 52.2697 91.0193 52.5478 90.3098 52.6499C89.6927 52.7387 89.1367 52.6907 88.6417 52.5061C88.1467 52.3214 87.7412 52.0196 87.425 51.6007C87.1089 51.1815 86.9075 50.6713 86.8209 50.0697C86.7332 49.4603 86.7779 48.9087 86.9549 48.4147C87.1317 47.9208 87.4201 47.5172 87.8197 47.2038ZM90.6007 47.8192C90.2765 47.6178 89.8946 47.5487 89.4549 47.6121C89.0462 47.6709 88.7114 47.847 88.4505 48.1404C88.1896 48.4339 88.066 48.7921 88.0797 49.2154L91.2612 48.7575C91.1451 48.3334 90.9249 48.0205 90.6007 47.8192Z"
              fill="#422D67"></path>
        <path d="M96.7265 46.4822L96.1777 46.5997C95.6671 46.7091 95.333 46.9541 95.1754 47.3347C95.0178 47.7152 94.9937 48.1607 95.1031 48.6714L95.7323 51.6094L94.4977 51.8739L93.2441 46.0206L94.3415 45.7854L94.6672 46.6364C94.7761 46.326 94.9473 46.0642 95.1804 45.8509C95.4137 45.6375 95.7551 45.4826 96.2048 45.3863L96.4792 45.3275L96.7265 46.4822Z"
              fill="#422D67"></path>
        <path d="M98.1182 44.9132L100.965 48.9187L101.268 44.0217L102.55 43.6588L102.054 50.0199L100.569 50.4401L96.8135 45.2825L98.1182 44.9132Z"
              fill="#422D67"></path>
        <path d="M104.004 41.3829C104.074 41.5892 104.063 41.7847 103.97 41.969C103.876 42.1534 103.726 42.2811 103.52 42.3519C103.314 42.4226 103.117 42.4137 102.93 42.3252C102.743 42.2369 102.614 42.0895 102.544 41.8831C102.473 41.6765 102.484 41.4812 102.578 41.2967C102.671 41.1123 102.821 40.9849 103.027 40.9142C103.234 40.8433 103.43 40.8522 103.617 40.9406C103.804 41.029 103.933 41.1764 104.004 41.3829ZM104.401 42.9766L106.341 48.639L105.147 49.0483L103.207 43.3859L104.401 42.9766Z"
              fill="#422D67"></path>
        <path d="M110.482 47.1375C109.933 47.3615 109.402 47.4416 108.888 47.3779C108.374 47.3143 107.914 47.1125 107.51 46.7723C107.106 46.432 106.789 45.9805 106.56 45.4177C106.33 44.8548 106.244 44.3135 106.301 43.7933C106.358 43.2734 106.55 42.8098 106.876 42.4029C107.202 41.9961 107.643 41.6792 108.199 41.4524C108.892 41.1697 109.532 41.1205 110.121 41.3052C110.71 41.49 111.187 41.8742 111.551 42.4577L110.35 42.9483C110.141 42.6632 109.879 42.4755 109.565 42.385C109.25 42.2946 108.919 42.32 108.573 42.4616C108.104 42.6531 107.796 42.9765 107.65 43.432C107.503 43.8876 107.54 44.3858 107.761 44.9271C107.985 45.4756 108.309 45.8629 108.734 46.0893C109.159 46.3157 109.606 46.3332 110.075 46.1417C110.436 45.9945 110.696 45.7766 110.856 45.4882C111.017 45.1997 111.066 44.8783 111.006 44.5243L112.197 44.0382C112.351 44.7245 112.278 45.3414 111.98 45.8884C111.681 46.4355 111.182 46.8518 110.482 47.1375Z"
              fill="#422D67"></path>
        <path d="M112.795 39.8335C113.073 39.4086 113.466 39.0673 113.973 38.8101C114.488 38.5492 114.994 38.4237 115.492 38.433C115.991 38.4425 116.45 38.581 116.87 38.8489C117.29 39.1166 117.633 39.506 117.901 40.0168C117.971 40.1558 118.033 40.3037 118.086 40.4602L114.062 42.5008L114.094 42.5633C114.358 43.015 114.69 43.3094 115.092 43.4466C115.493 43.5837 115.913 43.5412 116.351 43.3193C116.699 43.143 116.949 42.9134 117.103 42.6301C117.256 42.347 117.295 42.0365 117.22 41.6989L118.346 41.1279C118.524 41.7195 118.487 42.2973 118.236 42.8618C117.984 43.426 117.539 43.8704 116.9 44.1945C116.344 44.4765 115.802 44.6093 115.273 44.593C114.745 44.577 114.264 44.4209 113.831 44.1253C113.397 43.8299 113.042 43.411 112.767 42.8687C112.489 42.3195 112.354 41.7827 112.364 41.258C112.373 40.7336 112.517 40.2586 112.795 39.8335ZM115.627 39.525C115.255 39.4381 114.871 39.4952 114.475 39.6961C114.107 39.8828 113.846 40.1571 113.693 40.5188C113.54 40.8802 113.538 41.2594 113.686 41.6559L116.553 40.2021C116.307 39.8375 115.999 39.6119 115.627 39.525Z"
              fill="#422D67"></path>
    </g>
    <defs>
        <clipPath id="clip0_357_618">
            <rect width="154" height="55" fill="white" transform="translate(0 0.5)"></rect>
        </clipPath>
    </defs>
</svg>