<svg width="586" height="586" viewBox="0 0 586 586" fill="none" xmlns="http://www.w3.org/2000/svg">
<rect width="586" height="586" fill="#0066BB"/>
<path d="M120 208.2V219.5H90.9V237.4H113.2V248.5H90.9V278H76.9V208.2H120ZM142.927 204V278H128.927V204H142.927ZM162.859 216C160.393 216 158.326 215.233 156.659 213.7C155.059 212.1 154.259 210.133 154.259 207.8C154.259 205.467 155.059 203.533 156.659 202C158.326 200.4 160.393 199.6 162.859 199.6C165.326 199.6 167.359 200.4 168.959 202C170.626 203.533 171.459 205.467 171.459 207.8C171.459 210.133 170.626 212.1 168.959 213.7C167.359 215.233 165.326 216 162.859 216ZM169.759 222.6V278H155.759V222.6H169.759ZM213.291 221.8C219.891 221.8 225.225 223.9 229.291 228.1C233.358 232.233 235.391 238.033 235.391 245.5V278H221.391V247.4C221.391 243 220.291 239.633 218.091 237.3C215.891 234.9 212.891 233.7 209.091 233.7C205.225 233.7 202.158 234.9 199.891 237.3C197.691 239.633 196.591 243 196.591 247.4V278H182.591V222.6H196.591V229.5C198.458 227.1 200.825 225.233 203.691 223.9C206.625 222.5 209.825 221.8 213.291 221.8ZM280.505 278L261.705 254.4V278H247.705V204H261.705V246.1L280.305 222.6H298.505L274.105 250.4L298.705 278H280.505ZM101 378.7C96.1333 378.7 91.7333 377.867 87.8 376.2C83.9333 374.533 80.8667 372.133 78.6 369C76.3333 365.867 75.1667 362.167 75.1 357.9H90.1C90.3 360.767 91.3 363.033 93.1 364.7C94.9667 366.367 97.5 367.2 100.7 367.2C103.967 367.2 106.533 366.433 108.4 364.9C110.267 363.3 111.2 361.233 111.2 358.7C111.2 356.633 110.567 354.933 109.3 353.6C108.033 352.267 106.433 351.233 104.5 350.5C102.633 349.7 100.033 348.833 96.7 347.9C92.1667 346.567 88.4667 345.267 85.6 344C82.8 342.667 80.3667 340.7 78.3 338.1C76.3 335.433 75.3 331.9 75.3 327.5C75.3 323.367 76.3333 319.767 78.4 316.7C80.4667 313.633 83.3667 311.3 87.1 309.7C90.8333 308.033 95.1 307.2 99.9 307.2C107.1 307.2 112.933 308.967 117.4 312.5C121.933 315.967 124.433 320.833 124.9 327.1H109.5C109.367 324.7 108.333 322.733 106.4 321.2C104.533 319.6 102.033 318.8 98.9 318.8C96.1667 318.8 93.9667 319.5 92.3 320.9C90.7 322.3 89.9 324.333 89.9 327C89.9 328.867 90.5 330.433 91.7 331.7C92.9667 332.9 94.5 333.9 96.3 334.7C98.1667 335.433 100.767 336.3 104.1 337.3C108.633 338.633 112.333 339.967 115.2 341.3C118.067 342.633 120.533 344.633 122.6 347.3C124.667 349.967 125.7 353.467 125.7 357.8C125.7 361.533 124.733 365 122.8 368.2C120.867 371.4 118.033 373.967 114.3 375.9C110.567 377.767 106.133 378.7 101 378.7ZM161.438 378.9C156.104 378.9 151.304 377.733 147.038 375.4C142.771 373 139.404 369.633 136.938 365.3C134.538 360.967 133.338 355.967 133.338 350.3C133.338 344.633 134.571 339.633 137.038 335.3C139.571 330.967 143.004 327.633 147.338 325.3C151.671 322.9 156.504 321.7 161.838 321.7C167.171 321.7 172.004 322.9 176.338 325.3C180.671 327.633 184.071 330.967 186.538 335.3C189.071 339.633 190.338 344.633 190.338 350.3C190.338 355.967 189.038 360.967 186.437 365.3C183.904 369.633 180.438 373 176.038 375.4C171.704 377.733 166.838 378.9 161.438 378.9ZM161.438 366.7C163.971 366.7 166.338 366.1 168.538 364.9C170.804 363.633 172.604 361.767 173.938 359.3C175.271 356.833 175.938 353.833 175.938 350.3C175.938 345.033 174.538 341 171.738 338.2C169.004 335.333 165.638 333.9 161.638 333.9C157.638 333.9 154.271 335.333 151.538 338.2C148.871 341 147.538 345.033 147.538 350.3C147.538 355.567 148.838 359.633 151.438 362.5C154.104 365.3 157.438 366.7 161.438 366.7ZM225.007 334.1H215.307V378H201.107V334.1H194.807V322.6H201.107V319.8C201.107 313 203.04 308 206.907 304.8C210.774 301.6 216.607 300.1 224.407 300.3V312.1C221.007 312.033 218.64 312.6 217.307 313.8C215.974 315 215.307 317.167 215.307 320.3V322.6H225.007V334.1ZM249.38 334.1V360.9C249.38 362.767 249.813 364.133 250.68 365C251.613 365.8 253.146 366.2 255.28 366.2H261.78V378H252.98C241.18 378 235.28 372.267 235.28 360.8V334.1H228.68V322.6H235.28V308.9H249.38V322.6H261.78V334.1H249.38ZM347.649 322.6L331.449 378H316.349L306.249 339.3L296.149 378H280.949L264.649 322.6H278.849L288.649 364.8L299.249 322.6H314.049L324.449 364.7L334.249 322.6H347.649ZM350.624 350.1C350.624 344.5 351.724 339.533 353.924 335.2C356.191 330.867 359.224 327.533 363.024 325.2C366.891 322.867 371.191 321.7 375.924 321.7C380.058 321.7 383.658 322.533 386.724 324.2C389.858 325.867 392.358 327.967 394.224 330.5V322.6H408.324V378H394.224V369.9C392.424 372.5 389.924 374.667 386.724 376.4C383.591 378.067 379.958 378.9 375.824 378.9C371.158 378.9 366.891 377.7 363.024 375.3C359.224 372.9 356.191 369.533 353.924 365.2C351.724 360.8 350.624 355.767 350.624 350.1ZM394.224 350.3C394.224 346.9 393.558 344 392.224 341.6C390.891 339.133 389.091 337.267 386.824 336C384.558 334.667 382.124 334 379.524 334C376.924 334 374.524 334.633 372.324 335.9C370.124 337.167 368.324 339.033 366.924 341.5C365.591 343.9 364.924 346.767 364.924 350.1C364.924 353.433 365.591 356.367 366.924 358.9C368.324 361.367 370.124 363.267 372.324 364.6C374.591 365.933 376.991 366.6 379.524 366.6C382.124 366.6 384.558 365.967 386.824 364.7C389.091 363.367 390.891 361.5 392.224 359.1C393.558 356.633 394.224 353.7 394.224 350.3ZM434.998 331.2C436.798 328.267 439.131 325.967 441.998 324.3C444.931 322.633 448.264 321.8 451.998 321.8V336.5H448.298C443.898 336.5 440.564 337.533 438.298 339.6C436.098 341.667 434.998 345.267 434.998 350.4V378H420.998V322.6H434.998V331.2ZM511.927 349.1C511.927 351.1 511.794 352.9 511.527 354.5H471.027C471.361 358.5 472.761 361.633 475.227 363.9C477.694 366.167 480.727 367.3 484.327 367.3C489.527 367.3 493.227 365.067 495.427 360.6H510.527C508.927 365.933 505.861 370.333 501.327 373.8C496.794 377.2 491.227 378.9 484.627 378.9C479.294 378.9 474.494 377.733 470.227 375.4C466.027 373 462.727 369.633 460.327 365.3C457.994 360.967 456.827 355.967 456.827 350.3C456.827 344.567 457.994 339.533 460.327 335.2C462.661 330.867 465.927 327.533 470.127 325.2C474.327 322.867 479.161 321.7 484.627 321.7C489.894 321.7 494.594 322.833 498.727 325.1C502.927 327.367 506.161 330.6 508.427 334.8C510.761 338.933 511.927 343.7 511.927 349.1ZM497.427 345.1C497.361 341.5 496.061 338.633 493.527 336.5C490.994 334.3 487.894 333.2 484.227 333.2C480.761 333.2 477.827 334.267 475.427 336.4C473.094 338.467 471.661 341.367 471.127 345.1H497.427Z" fill="white"/>
</svg>
