<svg width="820" height="484" viewBox="0 0 820 484" fill="none" xmlns="http://www.w3.org/2000/svg">
<path d="M420.3 324.1V381.4H366.5V159.7H470.7C517.6 159.7 552.4 195.8 552.4 242.1C552.4 288.4 517.6 324.1 470.7 324.1H420.3ZM463.1 277.9C483.1 277.9 498.6 263.6 498.6 242.1C498.6 220.6 483.1 206 463.1 206H420.3V277.9H463.1Z" fill="#F4981B"/>
<path d="M356.7 102.5C356.9 102.3 357.2 102.1 357.4 101.9C361.1 103.6 364.2 106.3 367.6 108.6C367.7 109.1 367.6 109.4 367 109.2C363.5 107 360.1 104.7 356.7 102.5Z" fill="#209D91"/>
<path d="M367 109.2C367.2 109 367.4 108.8 367.6 108.6C370.6 110.7 373.6 112.8 376.6 114.9C376.7 115.3 376.7 115.7 376.1 115.4C373 113.3 370 111.2 367 109.2Z" fill="#209D91"/>
<path d="M376 115.4C376.2 115.2 376.4 115.1 376.5 114.9C377.9 115.9 379.3 117 380.7 118C380.9 118.4 380.8 118.5 380.4 118.4C379 117.4 377.5 116.4 376 115.4Z" fill="#209D91"/>
<path d="M388.4 123.9C386.7 123.2 385.3 122.1 384 120.9C384.3 120.7 384.5 120.7 384.8 120.9C386.3 121.5 387.5 122.5 388.6 123.7L388.4 123.9Z" fill="#209D91"/>
<path d="M384.8 121C384.5 121 384.3 121 384 121C382.8 120.2 381.6 119.3 380.4 118.5C380.5 118.3 380.6 118.2 380.7 118.1C382.3 118.7 383.6 119.8 384.8 121Z" fill="#209D91"/>
<path d="M390.7 125.6C389.7 125.4 389 124.8 388.4 123.9L388.6 123.7C389.6 123.9 390.3 124.6 390.8 125.4L390.7 125.6Z" fill="#209D91"/>
<path d="M390.8 125.4C391.5 125.6 392.2 125.9 392.6 126.9C391.5 126.9 391.1 126.2 390.7 125.6L390.8 125.4Z" fill="#209D91"/>
<path d="M356.7 102.5C348.4 97.4999 340.1 92.3999 331.7 87.4999C299.9 68.8999 266.8 52.8999 232 40.6999C208 32.2999 183.6 25.7999 158.2 23.1999C139 21.2999 119.9 21.4999 101.3 27.3999C74.3002 35.9999 58.7002 56.7999 58.1002 85.0999C57.7002 102.9 62.1002 119.7 68.6002 136.1C79.5002 164 95.3002 189 113.3 212.7C146.1 255.9 184.9 293.2 227.3 326.8C265.8 357.3 306.8 384.1 350.6 406.4C380.7 421.7 411.8 434.6 444.4 443.4C467.1 449.5 490.2 453.6 513.9 453.1C529.7 452.7 545.2 450.3 559.4 442.8C577.8 433.1 587.5 417.5 589.7 397C590.1 393.7 590.2 390.3 590.5 387C593.9 411.4 591.9 434.6 575.2 454.4C563.9 467.8 549 475.1 532.3 479.2C512.7 484 492.8 484 472.9 481.7C435 477.4 399 466.2 363.9 451.8C298.2 424.7 238.3 387.7 182.7 343.5C144.2 312.8 108.8 278.8 77.4002 240.8C54.0002 212 33.2002 181.7 17.9002 148C10.0002 130.5 3.80019 112.4 1.40019 93.1999C-0.599805 76.7999 0.100193 60.4999 7.00019 45.0999C15.7002 25.6999 31.1002 13.8999 50.8002 7.09992C67.7002 1.29992 85.3002 -0.100084 103 0.599916C137.3 1.89992 170.1 10.1999 202.4 21.3999C249 37.6999 292.5 60.0999 334.2 86.2999C342.1 91.2999 350 96.1999 357.5 101.8C357.4 102.4 357.3 102.8 356.7 102.5Z" fill="#209D91"/>
<path d="M241.1 385.9C241.2 385.9 241.2 385.9 241.3 385.9C221.3 372.6 201.8 358.3 182.8 343.2C180.6 341.4 178.3 339.6 176.1 337.8C195.2 353.5 217.5 370.6 241.1 385.9Z" fill="#29ABE3"/>
<path d="M127.8 313C141.2 349.1 170.6 376.3 214.3 383.6C193.9 369 158.1 341.5 127.8 313Z" fill="#F4981B"/>
<path d="M227.1 263.3V307.3H296.5C290.7 320.9 279.2 332.1 262.7 337.5C276.1 347.2 290.5 357.1 306 366.9C337 346.4 355.4 310.7 355.4 267.6V263.2H227.1V263.3Z" fill="#F4981B"/>
<path d="M174.5 263.3C177.3 227 201.5 201.6 239.8 201.6C269.9 201.6 287.6 217.4 297.1 236.4H350.3C336 186.7 295.5 155.3 239.4 155.3C188.5 155.3 150.7 180.2 132.5 216.9C138.6 224.6 152.3 241.4 174.5 263.3Z" fill="#F4981B"/>
<path d="M692.7 265.7L758.2 159.7H698.8L665.3 218.3L692.7 265.7Z" fill="#565555"/>
<path d="M694.2 273.4L665.3 321L760.9 483H820L694.2 273.4Z" fill="#A9A9A9"/>
<path d="M491.4 35.5L498.2 47.6C501.9 44.7 505.5 41.6 509 38.1C518.3 28.9 525.3 18.7 530.3 7.60001L526 0H518.6C512.8 13.9 503.3 26.2 491.4 35.5Z" fill="#F4981B"/>
<path d="M552.3 46.7L544.8 33.3C535.9 47.4 524.2 59.7 510.6 69.5L517.4 81.6001C524.1 76.9001 530.5 71.5 536.6 65.4C542.4 59.4 547.6 53.2 552.3 46.7Z" fill="#F4981B"/>
<path d="M565.5 70.2C555.2 82.8 543.1 94 529.5 103.2L622.6 268.7L562.4 364H621.5L651.5 314.9L678.3 270.7L565.5 70.2Z" fill="#F4981B"/>
<path d="M481.9 10.8C485.3 7.4 488.2 3.8 490.6 0H471.4L479 13.5C480 12.6 480.9 11.7 481.9 10.8Z" fill="#F4981B"/>
</svg>
