<svg width="446" height="200" viewBox="0 0 446 200" fill="none" xmlns="http://www.w3.org/2000/svg">
<path d="M50 15.2V26.5H20.9V44.4H43.2V55.5H20.9V85H6.9V15.2H50ZM72.9273 11V85H58.9273V11H72.9273ZM92.8594 23C90.3927 23 88.326 22.2333 86.6594 20.7C85.0594 19.1 84.2594 17.1333 84.2594 14.8C84.2594 12.4667 85.0594 10.5333 86.6594 8.99999C88.326 7.4 90.3927 6.6 92.8594 6.6C95.326 6.6 97.3594 7.4 98.9594 8.99999C100.626 10.5333 101.459 12.4667 101.459 14.8C101.459 17.1333 100.626 19.1 98.9594 20.7C97.3594 22.2333 95.326 23 92.8594 23ZM99.7594 29.6V85H85.7594V29.6H99.7594ZM143.291 28.8C149.891 28.8 155.225 30.9 159.291 35.1C163.358 39.2333 165.391 45.0333 165.391 52.5V85H151.391V54.4C151.391 50 150.291 46.6333 148.091 44.3C145.891 41.9 142.891 40.7 139.091 40.7C135.225 40.7 132.158 41.9 129.891 44.3C127.691 46.6333 126.591 50 126.591 54.4V85H112.591V29.6H126.591V36.5C128.458 34.1 130.825 32.2333 133.691 30.9C136.625 29.5 139.825 28.8 143.291 28.8ZM210.505 85L191.705 61.4V85H177.705V11H191.705V53.1L210.305 29.6H228.505L204.105 57.4L228.705 85H210.505ZM31 185.7C26.1333 185.7 21.7333 184.867 17.8 183.2C13.9333 181.533 10.8667 179.133 8.6 176C6.33333 172.867 5.16667 169.167 5.1 164.9H20.1C20.3 167.767 21.3 170.033 23.1 171.7C24.9667 173.367 27.5 174.2 30.7 174.2C33.9667 174.2 36.5333 173.433 38.4 171.9C40.2667 170.3 41.2 168.233 41.2 165.7C41.2 163.633 40.5667 161.933 39.3 160.6C38.0333 159.267 36.4333 158.233 34.5 157.5C32.6333 156.7 30.0333 155.833 26.7 154.9C22.1667 153.567 18.4667 152.267 15.6 151C12.8 149.667 10.3667 147.7 8.3 145.1C6.3 142.433 5.3 138.9 5.3 134.5C5.3 130.367 6.33333 126.767 8.4 123.7C10.4667 120.633 13.3667 118.3 17.1 116.7C20.8333 115.033 25.1 114.2 29.9 114.2C37.1 114.2 42.9333 115.967 47.4 119.5C51.9333 122.967 54.4333 127.833 54.9 134.1H39.5C39.3667 131.7 38.3333 129.733 36.4 128.2C34.5333 126.6 32.0333 125.8 28.9 125.8C26.1667 125.8 23.9667 126.5 22.3 127.9C20.7 129.3 19.9 131.333 19.9 134C19.9 135.867 20.5 137.433 21.7 138.7C22.9667 139.9 24.5 140.9 26.3 141.7C28.1667 142.433 30.7667 143.3 34.1 144.3C38.6333 145.633 42.3333 146.967 45.2 148.3C48.0667 149.633 50.5333 151.633 52.6 154.3C54.6667 156.967 55.7 160.467 55.7 164.8C55.7 168.533 54.7333 172 52.8 175.2C50.8667 178.4 48.0333 180.967 44.3 182.9C40.5667 184.767 36.1333 185.7 31 185.7ZM91.4375 185.9C86.1042 185.9 81.3042 184.733 77.0375 182.4C72.7708 180 69.4042 176.633 66.9375 172.3C64.5375 167.967 63.3375 162.967 63.3375 157.3C63.3375 151.633 64.5708 146.633 67.0375 142.3C69.5708 137.967 73.0042 134.633 77.3375 132.3C81.6708 129.9 86.5042 128.7 91.8375 128.7C97.1708 128.7 102.004 129.9 106.338 132.3C110.671 134.633 114.071 137.967 116.538 142.3C119.071 146.633 120.338 151.633 120.338 157.3C120.338 162.967 119.038 167.967 116.437 172.3C113.904 176.633 110.438 180 106.038 182.4C101.704 184.733 96.8375 185.9 91.4375 185.9ZM91.4375 173.7C93.9708 173.7 96.3375 173.1 98.5375 171.9C100.804 170.633 102.604 168.767 103.938 166.3C105.271 163.833 105.938 160.833 105.938 157.3C105.938 152.033 104.538 148 101.738 145.2C99.0042 142.333 95.6375 140.9 91.6375 140.9C87.6375 140.9 84.2708 142.333 81.5375 145.2C78.8708 148 77.5375 152.033 77.5375 157.3C77.5375 162.567 78.8375 166.633 81.4375 169.5C84.1042 172.3 87.4375 173.7 91.4375 173.7ZM155.007 141.1H145.307V185H131.107V141.1H124.807V129.6H131.107V126.8C131.107 120 133.04 115 136.907 111.8C140.774 108.6 146.607 107.1 154.407 107.3V119.1C151.007 119.033 148.64 119.6 147.307 120.8C145.974 122 145.307 124.167 145.307 127.3V129.6H155.007V141.1ZM179.38 141.1V167.9C179.38 169.767 179.813 171.133 180.68 172C181.613 172.8 183.146 173.2 185.28 173.2H191.78V185H182.98C171.18 185 165.28 179.267 165.28 167.8V141.1H158.68V129.6H165.28V115.9H179.38V129.6H191.78V141.1H179.38ZM277.649 129.6L261.449 185H246.349L236.249 146.3L226.149 185H210.949L194.649 129.6H208.849L218.649 171.8L229.249 129.6H244.049L254.449 171.7L264.249 129.6H277.649ZM280.624 157.1C280.624 151.5 281.724 146.533 283.924 142.2C286.191 137.867 289.224 134.533 293.024 132.2C296.891 129.867 301.191 128.7 305.924 128.7C310.058 128.7 313.658 129.533 316.724 131.2C319.858 132.867 322.358 134.967 324.224 137.5V129.6H338.324V185H324.224V176.9C322.424 179.5 319.924 181.667 316.724 183.4C313.591 185.067 309.958 185.9 305.824 185.9C301.158 185.9 296.891 184.7 293.024 182.3C289.224 179.9 286.191 176.533 283.924 172.2C281.724 167.8 280.624 162.767 280.624 157.1ZM324.224 157.3C324.224 153.9 323.558 151 322.224 148.6C320.891 146.133 319.091 144.267 316.824 143C314.558 141.667 312.124 141 309.524 141C306.924 141 304.524 141.633 302.324 142.9C300.124 144.167 298.324 146.033 296.924 148.5C295.591 150.9 294.924 153.767 294.924 157.1C294.924 160.433 295.591 163.367 296.924 165.9C298.324 168.367 300.124 170.267 302.324 171.6C304.591 172.933 306.991 173.6 309.524 173.6C312.124 173.6 314.558 172.967 316.824 171.7C319.091 170.367 320.891 168.5 322.224 166.1C323.558 163.633 324.224 160.7 324.224 157.3ZM364.998 138.2C366.798 135.267 369.131 132.967 371.998 131.3C374.931 129.633 378.264 128.8 381.998 128.8V143.5H378.298C373.898 143.5 370.564 144.533 368.298 146.6C366.098 148.667 364.998 152.267 364.998 157.4V185H350.998V129.6H364.998V138.2ZM441.927 156.1C441.927 158.1 441.794 159.9 441.527 161.5H401.027C401.361 165.5 402.761 168.633 405.227 170.9C407.694 173.167 410.727 174.3 414.327 174.3C419.527 174.3 423.227 172.067 425.427 167.6H440.527C438.927 172.933 435.861 177.333 431.327 180.8C426.794 184.2 421.227 185.9 414.627 185.9C409.294 185.9 404.494 184.733 400.227 182.4C396.027 180 392.727 176.633 390.327 172.3C387.994 167.967 386.827 162.967 386.827 157.3C386.827 151.567 387.994 146.533 390.327 142.2C392.661 137.867 395.927 134.533 400.127 132.2C404.327 129.867 409.161 128.7 414.627 128.7C419.894 128.7 424.594 129.833 428.727 132.1C432.927 134.367 436.161 137.6 438.427 141.8C440.761 145.933 441.927 150.7 441.927 156.1ZM427.427 152.1C427.361 148.5 426.061 145.633 423.527 143.5C420.994 141.3 417.894 140.2 414.227 140.2C410.761 140.2 407.827 141.267 405.427 143.4C403.094 145.467 401.661 148.367 401.127 152.1H427.427Z" fill="#0066BB"/>
</svg>
